<svg width="1008" height="858" viewBox="0 0 1008 858" fill="none" xmlns="http://www.w3.org/2000/svg">
<mask id="mask0_53_4" style="mask-type:alpha" maskUnits="userSpaceOnUse" x="4" y="4" width="1000" height="851">
<path d="M4 354.763L504.556 854.475L1004 360.34C785.98 -81.3704 262.065 -143.835 4 354.763Z" fill="#C4C4C4"/>
</mask>
<g mask="url(#mask0_53_4)">
<rect x="59.6173" y="-35.68" width="55.6173" height="55.7715" fill="#538B40"/>
<rect x="115.235" y="-35.68" width="55.6173" height="55.7715" fill="#347F3C"/>
<rect x="59.6173" y="20.0915" width="55.6173" height="55.7715" fill="#538B40"/>
<rect x="115.235" y="20.0915" width="55.6173" height="55.7715" fill="#2C6230"/>
<rect x="59.6173" y="410.492" width="55.6173" height="55.7715" fill="#538B40"/>
<rect x="115.235" y="410.492" width="55.6173" height="55.7715" fill="#347F3C"/>
<rect x="59.6173" y="466.264" width="55.6173" height="55.7714" fill="#538B40"/>
<rect x="115.235" y="466.264" width="55.6173" height="55.7714" fill="#347F3C"/>
<rect x="282.087" y="-35.68" width="55.6173" height="55.7715" fill="#538B40"/>
<rect x="337.704" y="-35.68" width="55.6174" height="55.7715" fill="#347F3C"/>
<rect x="282.087" y="20.0915" width="55.6173" height="55.7715" fill="#538B40"/>
<rect x="337.704" y="20.0915" width="55.6174" height="55.7715" fill="#347F3C"/>
<rect x="282.087" y="410.492" width="55.6173" height="55.7715" fill="#538B40"/>
<rect x="337.704" y="410.492" width="55.6174" height="55.7715" fill="#347F3C"/>
<rect x="282.087" y="466.264" width="55.6173" height="55.7714" fill="#538B40"/>
<rect x="337.704" y="466.264" width="55.6174" height="55.7714" fill="#2C6230"/>
<rect x="59.6173" y="187.406" width="55.6173" height="55.7715" fill="#538B40"/>
<rect x="115.235" y="187.406" width="55.6173" height="55.7715" fill="#347F3C"/>
<rect x="59.6173" y="243.178" width="55.6173" height="55.7715" fill="#538B40"/>
<rect x="115.235" y="243.178" width="55.6173" height="55.7715" fill="#347F3C"/>
<rect x="59.6173" y="633.578" width="55.6173" height="55.7715" fill="#538B40"/>
<rect x="115.235" y="633.578" width="55.6173" height="55.7715" fill="#347F3C"/>
<rect x="59.6173" y="689.35" width="55.6173" height="55.7715" fill="#538B40"/>
<rect x="115.235" y="689.35" width="55.6173" height="55.7715" fill="#2C6230"/>
<rect x="282.087" y="187.406" width="55.6173" height="55.7715" fill="#538B40"/>
<rect x="337.704" y="187.406" width="55.6174" height="55.7715" fill="#347F3C"/>
<rect x="282.087" y="243.178" width="55.6173" height="55.7715" fill="#538B40"/>
<rect x="337.704" y="243.178" width="55.6174" height="55.7715" fill="#347F3C"/>
<rect x="282.087" y="633.578" width="55.6173" height="55.7715" fill="#538B40"/>
<rect x="338" y="-66" width="55" height="826" fill="#347F3C"/>
<rect x="282.087" y="689.35" width="55.6173" height="55.7715" fill="#538B40"/>
<rect x="337.704" y="689.35" width="55.6174" height="55.7715" fill="#347F3C"/>
<rect x="170.852" y="-35.68" width="55.6173" height="55.7715" fill="#538B40"/>
<rect x="226.469" y="-35.68" width="55.6174" height="55.7715" fill="#347F3C"/>
<rect x="170.852" y="20.0915" width="55.6173" height="55.7715" fill="#538B40"/>
<rect x="226.469" y="20.0915" width="55.6174" height="55.7715" fill="#347F3C"/>
<rect x="170.852" y="410.492" width="55.6173" height="55.7715" fill="#538B40"/>
<rect x="226.469" y="410.492" width="55.6174" height="55.7715" fill="#347F3C"/>
<rect x="171" y="68" width="55" height="538" fill="#538B40"/>
<rect x="226.469" y="466.264" width="55.6174" height="55.7714" fill="#347F3C"/>
<rect x="3.99988" y="-35.68" width="55.6173" height="55.7715" fill="#347F3C"/>
<rect x="3.99988" y="20.0915" width="55.6173" height="55.7715" fill="#2C6230"/>
<rect x="393.321" y="-35.68" width="55.6173" height="55.7715" fill="#538B40"/>
<rect x="448.938" y="-35.68" width="55.6174" height="55.7715" fill="#347F3C"/>
<rect x="393.321" y="20.0915" width="55.6173" height="55.7715" fill="#538B40"/>
<rect x="448.938" y="20.0915" width="55.6174" height="55.7715" fill="#347F3C"/>
<rect x="3.99988" y="410.492" width="55.6173" height="55.7715" fill="#347F3C"/>
<rect x="3.99988" y="466.264" width="55.6173" height="55.7714" fill="#2C6230"/>
<rect x="393.321" y="410.492" width="55.6173" height="55.7715" fill="#538B40"/>
<rect x="448.938" y="410.492" width="55.6174" height="55.7715" fill="#347F3C"/>
<rect x="393.321" y="466.264" width="55.6173" height="55.7714" fill="#538B40"/>
<rect x="448.938" y="466.264" width="55.6174" height="55.7714" fill="#347F3C"/>
<rect x="170.852" y="187.406" width="55.6173" height="55.7715" fill="#538B40"/>
<rect x="226" y="-58" width="56" height="721" fill="#347F3C"/>
<rect x="170.852" y="243.178" width="55.6173" height="55.7715" fill="#538B40"/>
<rect x="226.469" y="243.178" width="55.6174" height="55.7715" fill="#347F3C"/>
<rect x="170.852" y="633.578" width="55.6173" height="55.7715" fill="#538B40"/>
<rect x="226.469" y="633.578" width="55.6174" height="55.7715" fill="#347F3C"/>
<rect x="170.852" y="689.35" width="55.6173" height="55.7715" fill="#538B40"/>
<rect x="226.469" y="689.35" width="55.6174" height="55.7715" fill="#2C6230"/>
<rect x="3.99988" y="187.406" width="55.6173" height="55.7715" fill="#347F3C"/>
<rect x="3.99988" y="243.178" width="55.6173" height="55.7715" fill="#347F3C"/>
<rect x="393.321" y="187.406" width="55.6173" height="55.7715" fill="#538B40"/>
<rect x="448.938" y="187.406" width="55.6174" height="55.7715" fill="#347F3C"/>
<rect x="393.321" y="243.178" width="55.6173" height="55.7715" fill="#538B40"/>
<rect x="448.938" y="243.178" width="55.6174" height="55.7715" fill="#347F3C"/>
<rect x="3.99988" y="633.578" width="55.6173" height="55.7715" fill="#347F3C"/>
<rect x="3.99988" y="689.35" width="55.6173" height="55.7715" fill="#2C6230"/>
<rect x="393.321" y="633.578" width="55.6173" height="55.7715" fill="#538B40"/>
<rect x="448.938" y="633.578" width="55.6174" height="55.7715" fill="#347F3C"/>
<rect x="393" y="-22" width="56" height="884" fill="#538B40"/>
<rect x="448.938" y="689.35" width="55.6174" height="55.7715" fill="#2C6230"/>
<rect x="59.6173" y="75.863" width="55.6173" height="55.7715" fill="#538B40"/>
<rect x="115.235" y="75.863" width="55.6173" height="55.7715" fill="#347F3C"/>
<rect x="59.6173" y="131.635" width="55.6173" height="55.7715" fill="#538B40"/>
<rect x="115.235" y="131.635" width="55.6173" height="55.7715" fill="#347F3C"/>
<rect x="59.6173" y="522.035" width="55.6173" height="55.7715" fill="#538B40"/>
<rect x="115.235" y="522.035" width="55.6173" height="55.7715" fill="#347F3C"/>
<rect x="59.6173" y="577.807" width="55.6173" height="55.7715" fill="#538B40"/>
<rect x="115.235" y="577.807" width="55.6173" height="55.7715" fill="#2C6230"/>
<rect x="282.087" y="75.863" width="55.6173" height="55.7715" fill="#538B40"/>
<rect x="337.704" y="75.863" width="55.6174" height="55.7715" fill="#347F3C"/>
<rect x="282.087" y="131.635" width="55.6173" height="55.7715" fill="#538B40"/>
<rect x="337.704" y="131.635" width="55.6174" height="55.7715" fill="#347F3C"/>
<rect x="282.087" y="522.035" width="55.6173" height="55.7715" fill="#538B40"/>
<rect x="337.704" y="522.035" width="55.6174" height="55.7715" fill="#347F3C"/>
<rect x="282.087" y="577.807" width="55.6173" height="55.7715" fill="#538B40"/>
<rect x="337.704" y="577.807" width="55.6174" height="55.7715" fill="#347F3C"/>
<rect x="59.6173" y="298.949" width="55.6173" height="55.7715" fill="#538B40"/>
<rect x="115.235" y="298.949" width="55.6173" height="55.7715" fill="#347F3C"/>
<rect x="60" y="125" width="55" height="453" fill="#538B40"/>
<rect x="115" y="90" width="56" height="509" fill="#347F3C"/>
<rect x="59.6173" y="745.121" width="55.6173" height="55.7715" fill="#538B40"/>
<rect x="115.235" y="745.121" width="55.6173" height="55.7715" fill="#347F3C"/>
<rect x="59.6173" y="800.893" width="55.6173" height="55.7715" fill="#538B40"/>
<rect x="115.235" y="800.893" width="55.6173" height="55.7715" fill="#2C6230"/>
<rect x="282.087" y="298.949" width="55.6173" height="55.7715" fill="#538B40"/>
<rect x="337.704" y="298.949" width="55.6174" height="55.7715" fill="#347F3C"/>
<rect x="282" y="-31" width="56" height="765" fill="#538B40"/>
<rect x="337.704" y="354.721" width="55.6174" height="55.7715" fill="#347F3C"/>
<rect x="282.087" y="745.121" width="55.6173" height="55.7715" fill="#538B40"/>
<rect x="337.704" y="745.121" width="55.6174" height="55.7715" fill="#347F3C"/>
<rect x="282.087" y="800.893" width="55.6173" height="55.7715" fill="#538B40"/>
<rect x="337.704" y="800.893" width="55.6174" height="55.7715" fill="#2C6230"/>
<rect x="170.852" y="75.863" width="55.6173" height="55.7715" fill="#538B40"/>
<rect x="226.469" y="75.863" width="55.6174" height="55.7715" fill="#347F3C"/>
<rect x="170.852" y="131.635" width="55.6173" height="55.7715" fill="#538B40"/>
<rect x="226.469" y="131.635" width="55.6174" height="55.7715" fill="#347F3C"/>
<rect x="170.852" y="522.035" width="55.6173" height="55.7715" fill="#538B40"/>
<rect x="226.469" y="522.035" width="55.6174" height="55.7715" fill="#347F3C"/>
<rect x="170.852" y="577.807" width="55.6173" height="55.7715" fill="#538B40"/>
<rect x="226.469" y="577.807" width="55.6174" height="55.7715" fill="#347F3C"/>
<rect x="3.99988" y="75.863" width="55.6173" height="55.7715" fill="#347F3C"/>
<rect x="3.99988" y="131.635" width="55.6173" height="55.7715" fill="#2C6230"/>
<rect x="393.321" y="75.863" width="55.6173" height="55.7715" fill="#538B40"/>
<rect x="448.938" y="75.863" width="55.6174" height="55.7715" fill="#347F3C"/>
<rect x="393.321" y="131.635" width="55.6173" height="55.7715" fill="#538B40"/>
<rect x="448.938" y="131.635" width="55.6174" height="55.7715" fill="#347F3C"/>
<rect x="3.99988" y="522.035" width="55.6173" height="55.7715" fill="#347F3C"/>
<rect x="3.99988" y="577.807" width="55.6173" height="55.7715" fill="#2C6230"/>
<rect x="393.321" y="522.035" width="55.6173" height="55.7715" fill="#538B40"/>
<rect x="448.938" y="522.035" width="55.6174" height="55.7715" fill="#347F3C"/>
<rect x="393.321" y="577.807" width="55.6173" height="55.7715" fill="#538B40"/>
<rect x="448.938" y="577.807" width="55.6174" height="55.7715" fill="#347F3C"/>
<rect x="170.852" y="298.949" width="55.6173" height="55.7715" fill="#538B40"/>
<rect x="226.469" y="298.949" width="55.6174" height="55.7715" fill="#347F3C"/>
<rect x="170.852" y="354.721" width="55.6173" height="55.7715" fill="#538B40"/>
<rect x="226.469" y="354.721" width="55.6174" height="55.7715" fill="#347F3C"/>
<rect x="170.852" y="745.121" width="55.6173" height="55.7715" fill="#538B40"/>
<rect x="226.469" y="745.121" width="55.6174" height="55.7715" fill="#347F3C"/>
<rect x="170.852" y="800.893" width="55.6173" height="55.7715" fill="#538B40"/>
<rect x="226.469" y="800.893" width="55.6174" height="55.7715" fill="#2C6230"/>
<rect x="3.99988" y="298.949" width="55.6173" height="55.7715" fill="#347F3C"/>
<rect x="4" y="153" width="56" height="273" fill="#347F3C"/>
<rect x="393.321" y="298.949" width="55.6173" height="55.7715" fill="#538B40"/>
<rect x="448.938" y="298.949" width="55.6174" height="55.7715" fill="#347F3C"/>
<rect x="393.321" y="354.721" width="55.6173" height="55.7715" fill="#538B40"/>
<rect x="448.938" y="354.721" width="55.6174" height="55.7715" fill="#2C6230"/>
<rect x="3.99988" y="745.121" width="55.6173" height="55.7715" fill="#347F3C"/>
<rect x="3.99988" y="800.893" width="55.6173" height="55.7715" fill="#2C6230"/>
<rect x="393.321" y="745.121" width="55.6173" height="55.7715" fill="#538B40"/>
<rect x="449" y="-29" width="56" height="902" fill="#347F3C"/>
<rect x="393.321" y="800.893" width="55.6173" height="55.7715" fill="#538B40"/>
<rect x="448.938" y="800.893" width="55.6174" height="55.7715" fill="#347F3C"/>
<rect x="504.556" y="-35.68" width="55.6173" height="55.7715" fill="#538B40"/>
<rect x="560.173" y="-35.68" width="55.6173" height="55.7715" fill="#347F3C"/>
<rect x="505" y="-36" width="55" height="915" fill="#538B40"/>
<rect x="560.173" y="20.0915" width="55.6173" height="55.7715" fill="#347F3C"/>
<rect x="949.495" y="-35.68" width="55.6174" height="55.7715" fill="#538B40"/>
<rect x="949.495" y="20.0915" width="55.6173" height="55.7715" fill="#538B40"/>
<rect x="504.556" y="410.492" width="55.6173" height="55.7715" fill="#538B40"/>
<rect x="560.173" y="410.492" width="55.6173" height="55.7715" fill="#347F3C"/>
<rect x="504.556" y="466.264" width="55.6174" height="55.7714" fill="#538B40"/>
<rect x="560.173" y="466.264" width="55.6173" height="55.7714" fill="#347F3C"/>
<rect x="949.495" y="410.492" width="55.6174" height="55.7715" fill="#538B40"/>
<rect x="949.495" y="466.264" width="55.6173" height="55.7714" fill="#538B40"/>
<rect x="727.025" y="-35.68" width="55.6174" height="55.7715" fill="#538B40"/>
<rect x="782.643" y="-35.68" width="55.6174" height="55.7715" fill="#347F3C"/>
<rect x="727.025" y="20.0915" width="55.6173" height="55.7715" fill="#538B40"/>
<rect x="782.643" y="20.0915" width="55.6174" height="55.7715" fill="#2C6230"/>
<rect x="727.025" y="410.492" width="55.6174" height="55.7715" fill="#538B40"/>
<rect x="782.643" y="410.492" width="55.6174" height="55.7715" fill="#347F3C"/>
<rect x="727.025" y="466.264" width="55.6173" height="55.7714" fill="#538B40"/>
<rect x="782.643" y="466.264" width="55.6174" height="55.7714" fill="#347F3C"/>
<rect x="504.556" y="187.406" width="55.6173" height="55.7715" fill="#538B40"/>
<rect x="560.173" y="187.406" width="55.6173" height="55.7715" fill="#347F3C"/>
<rect x="504.556" y="243.178" width="55.6174" height="55.7715" fill="#538B40"/>
<rect x="560.173" y="243.178" width="55.6173" height="55.7715" fill="#347F3C"/>
<rect x="949.495" y="187.406" width="55.6174" height="55.7715" fill="#538B40"/>
<rect x="949.495" y="243.178" width="55.6173" height="55.7715" fill="#538B40"/>
<rect x="504.556" y="633.578" width="55.6173" height="55.7715" fill="#538B40"/>
<rect x="560.173" y="633.578" width="55.6173" height="55.7715" fill="#347F3C"/>
<rect x="504.556" y="689.35" width="55.6174" height="55.7715" fill="#538B40"/>
<rect x="560" y="-36" width="56" height="918" fill="#347F3C"/>
<rect x="949.495" y="633.578" width="55.6174" height="55.7715" fill="#538B40"/>
<rect x="949.495" y="689.35" width="55.6173" height="55.7715" fill="#538B40"/>
<rect x="727.025" y="187.406" width="55.6174" height="55.7715" fill="#538B40"/>
<rect x="782.643" y="187.406" width="55.6174" height="55.7715" fill="#347F3C"/>
<rect x="727.025" y="243.178" width="55.6173" height="55.7715" fill="#538B40"/>
<rect x="782.643" y="243.178" width="55.6174" height="55.7715" fill="#347F3C"/>
<rect x="727.025" y="633.578" width="55.6174" height="55.7715" fill="#538B40"/>
<rect x="782.643" y="633.578" width="55.6174" height="55.7715" fill="#347F3C"/>
<rect x="727.025" y="689.35" width="55.6173" height="55.7715" fill="#538B40"/>
<rect x="782.643" y="689.35" width="55.6174" height="55.7715" fill="#2C6230"/>
<rect x="615.791" y="-35.68" width="55.6174" height="55.7715" fill="#538B40"/>
<rect x="671.408" y="-35.68" width="55.6173" height="55.7715" fill="#347F3C"/>
<rect x="615.791" y="20.0915" width="55.6174" height="55.7715" fill="#538B40"/>
<rect x="671.408" y="20.0915" width="55.6173" height="55.7715" fill="#347F3C"/>
<rect x="615.791" y="410.492" width="55.6174" height="55.7715" fill="#538B40"/>
<rect x="671.408" y="410.492" width="55.6173" height="55.7715" fill="#347F3C"/>
<rect x="615.791" y="466.264" width="55.6174" height="55.7714" fill="#538B40"/>
<rect x="671.408" y="466.264" width="55.6173" height="55.7714" fill="#2C6230"/>
<rect x="838.26" y="-35.68" width="55.6173" height="55.7715" fill="#538B40"/>
<rect x="893.877" y="-35.68" width="55.6174" height="55.7715" fill="#347F3C"/>
<rect x="838.26" y="20.0915" width="55.6173" height="55.7715" fill="#538B40"/>
<rect x="893.877" y="20.0915" width="55.6174" height="55.7715" fill="#2C6230"/>
<rect x="838.26" y="410.492" width="55.6173" height="55.7715" fill="#538B40"/>
<rect x="894" y="37" width="55" height="621" fill="#347F3C"/>
<rect x="838" y="3" width="56" height="718" fill="#538B40"/>
<rect x="893.877" y="466.264" width="55.6174" height="55.7714" fill="#2C6230"/>
<rect x="615.791" y="187.406" width="55.6174" height="55.7715" fill="#538B40"/>
<rect x="671.408" y="187.406" width="55.6173" height="55.7715" fill="#347F3C"/>
<rect x="615.791" y="243.178" width="55.6174" height="55.7715" fill="#538B40"/>
<rect x="671.408" y="243.178" width="55.6173" height="55.7715" fill="#347F3C"/>
<rect x="615.791" y="633.578" width="55.6174" height="55.7715" fill="#538B40"/>
<rect x="671.408" y="633.578" width="55.6173" height="55.7715" fill="#347F3C"/>
<rect x="616" y="-27" width="55" height="903" fill="#538B40"/>
<rect x="671.408" y="689.35" width="55.6173" height="55.7715" fill="#2C6230"/>
<rect x="838.26" y="187.406" width="55.6173" height="55.7715" fill="#538B40"/>
<rect x="893.877" y="187.406" width="55.6174" height="55.7715" fill="#347F3C"/>
<rect x="838.26" y="243.178" width="55.6173" height="55.7715" fill="#538B40"/>
<rect x="893.877" y="243.178" width="55.6174" height="55.7715" fill="#347F3C"/>
<rect x="838.26" y="633.578" width="55.6173" height="55.7715" fill="#538B40"/>
<rect x="893.877" y="633.578" width="55.6174" height="55.7715" fill="#347F3C"/>
<rect x="838.26" y="689.35" width="55.6173" height="55.7715" fill="#538B40"/>
<rect x="893.877" y="689.35" width="55.6174" height="55.7715" fill="#2C6230"/>
<rect x="504.556" y="75.863" width="55.6173" height="55.7715" fill="#538B40"/>
<rect x="560.173" y="75.863" width="55.6173" height="55.7715" fill="#347F3C"/>
<rect x="504.556" y="131.635" width="55.6174" height="55.7715" fill="#538B40"/>
<rect x="560.173" y="131.635" width="55.6173" height="55.7715" fill="#347F3C"/>
<rect x="949.495" y="75.863" width="55.6174" height="55.7715" fill="#538B40"/>
<rect x="949.495" y="131.635" width="55.6173" height="55.7715" fill="#538B40"/>
<rect x="504.556" y="522.035" width="55.6173" height="55.7715" fill="#538B40"/>
<rect x="560.173" y="522.035" width="55.6173" height="55.7715" fill="#347F3C"/>
<rect x="504.556" y="577.807" width="55.6174" height="55.7715" fill="#538B40"/>
<rect x="560.173" y="577.807" width="55.6173" height="55.7715" fill="#347F3C"/>
<rect x="949.495" y="522.035" width="55.6174" height="55.7715" fill="#538B40"/>
<rect x="949.495" y="577.807" width="55.6173" height="55.7715" fill="#538B40"/>
<rect x="727" y="3" width="56" height="839" fill="#538B40"/>
<rect x="782.643" y="75.863" width="55.6174" height="55.7715" fill="#347F3C"/>
<rect x="727.025" y="131.635" width="55.6173" height="55.7715" fill="#538B40"/>
<rect x="782.643" y="131.635" width="55.6174" height="55.7715" fill="#347F3C"/>
<rect x="727.025" y="522.035" width="55.6174" height="55.7715" fill="#538B40"/>
<rect x="783" y="-28" width="55" height="882" fill="#347F3C"/>
<rect x="727.025" y="577.807" width="55.6173" height="55.7715" fill="#538B40"/>
<rect x="782.643" y="577.807" width="55.6174" height="55.7715" fill="#2C6230"/>
<rect x="504.556" y="298.949" width="55.6173" height="55.7715" fill="#538B40"/>
<rect x="560.173" y="298.949" width="55.6173" height="55.7715" fill="#347F3C"/>
<rect x="504.556" y="354.721" width="55.6174" height="55.7715" fill="#538B40"/>
<rect x="560.173" y="354.721" width="55.6173" height="55.7715" fill="#2C6230"/>
<rect x="949" y="169" width="56" height="362" fill="#538B40"/>
<rect x="949.495" y="354.721" width="55.6173" height="55.7715" fill="#538B40"/>
<rect x="504.556" y="745.121" width="55.6173" height="55.7715" fill="#538B40"/>
<rect x="560.173" y="745.121" width="55.6173" height="55.7715" fill="#347F3C"/>
<rect x="504.556" y="800.893" width="55.6174" height="55.7715" fill="#538B40"/>
<rect x="560.173" y="800.893" width="55.6173" height="55.7715" fill="#2C6230"/>
<rect x="949.495" y="745.121" width="55.6174" height="55.7715" fill="#538B40"/>
<rect x="949.495" y="800.893" width="55.6173" height="55.7715" fill="#538B40"/>
<rect x="727.025" y="298.949" width="55.6174" height="55.7715" fill="#538B40"/>
<rect x="782.643" y="298.949" width="55.6174" height="55.7715" fill="#347F3C"/>
<rect x="727.025" y="354.721" width="55.6173" height="55.7715" fill="#538B40"/>
<rect x="782.643" y="354.721" width="55.6174" height="55.7715" fill="#347F3C"/>
<rect x="727.025" y="745.121" width="55.6174" height="55.7715" fill="#538B40"/>
<rect x="782.643" y="745.121" width="55.6174" height="55.7715" fill="#347F3C"/>
<rect x="727.025" y="800.893" width="55.6173" height="55.7715" fill="#538B40"/>
<rect x="782.643" y="800.893" width="55.6174" height="55.7715" fill="#2C6230"/>
<rect x="615.791" y="75.863" width="55.6174" height="55.7715" fill="#538B40"/>
<rect x="671" y="-18" width="56" height="832" fill="#347F3C"/>
<rect x="615.791" y="131.635" width="55.6174" height="55.7715" fill="#538B40"/>
<rect x="671.408" y="131.635" width="55.6173" height="55.7715" fill="#347F3C"/>
<rect x="615.791" y="522.035" width="55.6174" height="55.7715" fill="#538B40"/>
<rect x="671.408" y="522.035" width="55.6173" height="55.7715" fill="#347F3C"/>
<rect x="615.791" y="577.807" width="55.6174" height="55.7715" fill="#538B40"/>
<rect x="671.408" y="577.807" width="55.6173" height="55.7715" fill="#347F3C"/>
<rect x="838.26" y="75.863" width="55.6173" height="55.7715" fill="#538B40"/>
<rect x="893.877" y="75.863" width="55.6174" height="55.7715" fill="#347F3C"/>
<rect x="838.26" y="131.635" width="55.6173" height="55.7715" fill="#538B40"/>
<rect x="893.877" y="131.635" width="55.6174" height="55.7715" fill="#2C6230"/>
<rect x="838.26" y="522.035" width="55.6173" height="55.7715" fill="#538B40"/>
<rect x="893.877" y="522.035" width="55.6174" height="55.7715" fill="#347F3C"/>
<rect x="838.26" y="577.807" width="55.6173" height="55.7715" fill="#538B40"/>
<rect x="893.877" y="577.807" width="55.6174" height="55.7715" fill="#2C6230"/>
<rect x="615.791" y="298.949" width="55.6174" height="55.7715" fill="#538B40"/>
<rect x="671.408" y="298.949" width="55.6173" height="55.7715" fill="#347F3C"/>
<rect x="615.791" y="354.721" width="55.6174" height="55.7715" fill="#538B40"/>
<rect x="671.408" y="354.721" width="55.6173" height="55.7715" fill="#347F3C"/>
<rect x="615.791" y="745.121" width="55.6174" height="55.7715" fill="#538B40"/>
<rect x="671.408" y="745.121" width="55.6173" height="55.7715" fill="#347F3C"/>
<rect x="615.791" y="800.893" width="55.6174" height="55.7715" fill="#538B40"/>
<rect x="671.408" y="800.893" width="55.6173" height="55.7715" fill="#2C6230"/>
<g clip-path="url(#clip0_53_4)">
<path d="M871.791 1257.12C731.297 1257.12 616.997 1142.82 616.997 1002.33C616.997 861.832 731.297 747.532 871.791 747.532C1012.28 747.532 1126.58 861.832 1126.58 1002.33C1126.58 1142.82 1012.28 1257.12 871.791 1257.12Z" fill="#E5E4DF"/>
<path d="M1066.65 1166.29C1059.41 1174.89 1051.61 1183.01 1043.31 1190.58C1004.8 1135.81 984.048 1070.67 984.048 1002.33C984.048 933.987 1004.8 868.84 1043.31 814.069C1051.61 821.648 1059.41 829.763 1066.65 838.362C1034.38 886.491 1017.04 943.075 1017.04 1002.33C1017.04 1061.58 1034.38 1118.16 1066.65 1166.29V1166.29ZM676.932 838.362C709.205 886.491 726.545 943.075 726.545 1002.33C726.545 1061.58 709.205 1118.16 676.932 1166.29C684.174 1174.89 691.972 1183.01 700.276 1190.58C738.786 1135.81 759.535 1070.67 759.535 1002.33C759.535 933.987 738.786 868.84 700.276 814.069C691.972 821.648 684.174 829.763 676.932 838.362V838.362Z" fill="#BFBCAF"/>
<path d="M698.476 889.929C690.309 889.929 682.162 887.735 674.799 883.316C668.95 879.806 667.054 872.219 670.565 866.37C674.075 860.52 681.662 858.625 687.511 862.136C694.985 866.623 703.912 866.21 711.39 861.033C718.869 855.857 722.398 847.647 720.832 839.073C719.606 832.363 724.053 825.929 730.764 824.704C737.47 823.479 743.907 827.925 745.133 834.636C748.442 852.754 740.899 870.652 725.449 881.345C717.202 887.052 707.826 889.929 698.476 889.929V889.929ZM740.878 948.626C758.704 942.682 770.953 927.609 772.845 909.289C773.546 902.504 768.614 896.435 761.828 895.734C755.049 895.029 748.974 899.965 748.273 906.751C747.377 915.421 741.691 922.315 733.064 925.193C724.437 928.068 715.751 925.969 709.831 919.571C705.197 914.564 697.383 914.263 692.376 918.895C687.37 923.528 687.067 931.343 691.7 936.35C700.63 945.999 712.787 951.158 725.498 951.158C730.592 951.156 735.777 950.327 740.878 948.626V948.626ZM778.831 1069.55C782.625 1063.88 781.106 1056.21 775.437 1052.41C769.769 1048.62 762.097 1050.14 758.303 1055.81C753.455 1063.05 745.208 1066.49 736.232 1064.99C727.261 1063.5 720.568 1057.57 718.329 1049.15C716.577 1042.56 709.811 1038.63 703.22 1040.39C696.627 1042.14 692.703 1048.9 694.455 1055.49C699.186 1073.29 713.639 1086.27 732.173 1089.35C734.91 1089.81 737.629 1090.03 740.315 1090.03C755.818 1090.03 770.099 1082.59 778.831 1069.55ZM755.686 1150.73C760.915 1146.35 761.603 1138.56 757.222 1133.34C752.84 1128.11 745.05 1127.42 739.822 1131.8C733.141 1137.4 724.259 1138.39 716.064 1134.44C707.869 1130.5 703.1 1122.94 703.307 1114.22C703.469 1107.41 698.073 1101.75 691.253 1101.58C691.153 1101.58 691.053 1101.58 690.954 1101.58C684.269 1101.58 678.772 1106.92 678.612 1113.64C678.174 1132.05 688.42 1148.55 705.351 1156.7C712.077 1159.94 719.174 1161.53 726.172 1161.53C736.788 1161.53 747.177 1157.86 755.686 1150.73ZM744.693 1017.14C763.344 1014.85 778.345 1002.52 783.843 984.94C785.879 978.429 782.252 971.501 775.742 969.465C769.229 967.427 762.303 971.056 760.267 977.566C757.665 985.885 750.722 991.511 741.694 992.615C732.664 993.719 724.571 989.931 720.042 982.485C716.497 976.658 708.899 974.807 703.07 978.352C697.242 981.897 695.392 989.496 698.937 995.323C707.465 1009.34 722.312 1017.51 738.641 1017.51C740.664 1017.5 742.685 1017.38 744.693 1017.14V1017.14ZM1068.36 883.316C1074.21 879.806 1076.11 872.219 1072.6 866.37C1069.09 860.521 1061.5 858.625 1055.65 862.136C1048.18 866.622 1039.25 866.21 1031.77 861.033C1024.29 855.857 1020.76 847.647 1022.33 839.073C1023.56 832.363 1019.11 825.929 1012.4 824.704C1005.7 823.483 999.256 827.924 998.03 834.636C994.721 852.753 1002.26 870.652 1017.71 881.345C1025.96 887.053 1035.34 889.93 1044.69 889.93C1052.85 889.929 1061 887.735 1068.36 883.316V883.316ZM1051.46 936.349C1056.1 931.342 1055.79 923.528 1050.79 918.894C1045.78 914.262 1037.97 914.565 1033.33 919.57C1027.41 925.967 1018.73 928.07 1010.1 925.192C1001.47 922.315 995.787 915.421 994.891 906.75C994.19 899.964 988.132 895.022 981.335 895.733C974.55 896.434 969.617 902.503 970.318 909.288C972.211 927.608 984.46 942.682 1002.28 948.625C1007.39 950.326 1012.57 951.155 1017.67 951.155C1030.38 951.156 1042.53 945.997 1051.46 936.349ZM1010.99 1089.36C1029.52 1086.27 1043.98 1073.29 1048.71 1055.49C1050.46 1048.9 1046.54 1042.14 1039.94 1040.39C1033.34 1038.63 1026.59 1042.56 1024.83 1049.15C1022.6 1057.57 1015.9 1063.5 1006.93 1064.99C997.954 1066.48 989.709 1063.05 984.861 1055.81C981.067 1050.14 973.395 1048.62 967.727 1052.41C962.058 1056.21 960.539 1063.88 964.332 1069.55C973.065 1082.59 987.343 1090.03 1002.85 1090.03C1005.53 1090.03 1008.25 1089.81 1010.99 1089.36ZM1037.81 1156.7C1054.74 1148.55 1064.99 1132.05 1064.55 1113.64C1064.39 1106.82 1058.72 1101.39 1051.91 1101.58C1045.09 1101.74 1039.69 1107.4 1039.86 1114.22C1040.06 1122.94 1035.29 1130.49 1027.1 1134.44C1018.9 1138.38 1010.02 1137.4 1003.34 1131.8C998.111 1127.42 990.319 1128.11 985.94 1133.33C981.559 1138.56 982.247 1146.35 987.476 1150.73C995.986 1157.86 1006.37 1161.53 1016.99 1161.52C1023.99 1161.53 1031.09 1159.93 1037.81 1156.7V1156.7ZM1044.22 995.323C1047.77 989.495 1045.92 981.897 1040.09 978.352C1034.27 974.809 1026.67 976.657 1023.12 982.485C1018.59 989.931 1010.5 993.722 1001.47 992.614C992.441 991.51 985.497 985.884 982.896 977.565C980.86 971.054 973.928 967.429 967.421 969.464C960.91 971.5 957.283 978.428 959.319 984.939C964.816 1002.52 979.818 1014.85 998.469 1017.13C1000.48 1017.38 1002.5 1017.5 1004.52 1017.5C1020.85 1017.51 1035.7 1009.34 1044.22 995.323V995.323Z" fill="#FF473E"/>
</g>
<rect x="838.26" y="298.949" width="55.6173" height="55.7715" fill="#538B40"/>
<rect x="893.877" y="298.949" width="55.6174" height="55.7715" fill="#347F3C"/>
<rect x="838.26" y="354.721" width="55.6173" height="55.7715" fill="#538B40"/>
<rect x="893.877" y="354.721" width="55.6174" height="55.7715" fill="#347F3C"/>
<rect x="838.26" y="745.121" width="55.6173" height="55.7715" fill="#538B40"/>
<rect x="893.877" y="745.121" width="55.6174" height="55.7715" fill="#347F3C"/>
<rect x="838.26" y="800.893" width="55.6173" height="55.7715" fill="#538B40"/>
<rect x="893.877" y="800.893" width="55.6174" height="55.7715" fill="#2C6230"/>
</g>
<path d="M505.947 757.001L449.587 700.736C433.366 787.74 505.947 787.74 505.947 787.74C505.947 787.74 583.533 787.74 562.817 700.736L505.947 757.001Z" fill="#E4C688"/>
<path fill-rule="evenodd" clip-rule="evenodd" d="M449.587 700.736L255.39 506.867C336.592 241.179 683.644 259.026 755.947 509.659L562.817 700.736L505.947 757.001L449.587 700.736ZM539.039 670.619C514.278 660.5 500.396 660.348 475.635 670.619L364.4 560.192L505.668 416.301L650.274 560.192L539.039 670.619Z" fill="#E4C688"/>
<path d="M504.5 532.475C494.835 532.475 487 540.311 487 549.975V549.975C487 559.64 494.835 567.475 504.5 567.475H505.5C515.165 567.475 523 559.64 523 549.975V549.975C523 540.311 515.165 532.475 505.5 532.475H504.5Z" fill="#E4C688"/>
<rect width="22.2778" height="22.2778" transform="matrix(0.706127 -0.708086 0.706127 0.708086 658.06 562.349)" fill="white"/>
<rect width="22.2778" height="22.2778" transform="matrix(0.706127 -0.708085 0.706127 0.708085 488.983 392.804)" fill="white"/>
<rect width="22.2778" height="22.2778" transform="matrix(0.706127 -0.708086 0.706127 0.708086 326.581 562.349)" fill="white"/>
<rect width="14" height="4.1205" transform="matrix(1 0 -0.00277032 0.999996 498.018 548.475)" fill="white"/>
<path d="M506.781 755.16L519.017 742.89L513.455 735.082H498.994L494.397 742.89L506.781 755.16Z" fill="white"/>
<path d="M506.781 755.16L506.429 755.515L506.781 755.864L507.133 755.515L506.781 755.16ZM968.757 298.189C968.953 297.994 968.954 297.678 968.76 297.482C968.566 297.286 968.249 297.284 968.053 297.478L968.757 298.189ZM41.0593 293.017C40.8632 292.822 40.5466 292.824 40.3522 293.02C40.1579 293.216 40.1593 293.533 40.3555 293.727L41.0593 293.017ZM498.994 735.082V734.582H498.708L498.563 734.829L498.994 735.082ZM513.455 735.082L513.862 734.792L513.713 734.582H513.455V735.082ZM519.017 742.89L519.371 743.243L519.669 742.944L519.424 742.6L519.017 742.89ZM507.133 755.515L968.757 298.189L968.053 297.478L506.429 754.805L507.133 755.515ZM507.133 754.805L494.749 742.535L494.046 743.245L506.429 755.515L507.133 754.805ZM494.749 742.535L41.0593 293.017L40.3555 293.727L494.046 743.245L494.749 742.535ZM494.828 743.144L499.425 735.336L498.563 734.829L493.967 742.637L494.828 743.144ZM498.994 735.582H513.455V734.582H498.994V735.582ZM513.048 735.372L518.609 743.18L519.424 742.6L513.862 734.792L513.048 735.372ZM507.135 755.513L519.371 743.243L518.663 742.537L506.427 754.807L507.135 755.513Z" fill="white"/>
<path d="M1004 360.476L504.5 854.476L4 354.976C270.037 -138.588 761.549 -91.1555 1004 360.476Z" stroke="black" stroke-width="5"/>
<defs>
<clipPath id="clip0_53_4">
<rect width="512" height="512" fill="white" transform="translate(615.791 745.121)"/>
</clipPath>
</defs>
</svg>
